G04 Layer_Color=16711935*
%FSLAX44Y44*%
%MOMM*%
G71*
G01*
G75*
%ADD26C,0.0762*%
%ADD31C,0.0000*%
%ADD32C,0.0254*%
D26*
X185141Y137069D02*
X193605Y128605D01*
X185141D02*
X193605Y137069D01*
X185141Y132837D02*
X193605D01*
X189373Y128605D02*
Y137069D01*
X318354Y73520D02*
X309890Y81984D01*
X318354D02*
X309890Y73520D01*
X318354Y77752D02*
X309890D01*
X314122Y81984D02*
Y73520D01*
X214885Y55270D02*
X206421Y63734D01*
X214885D02*
X206421Y55270D01*
X214885Y59502D02*
X206421D01*
X210653Y63734D02*
Y55270D01*
D31*
X196952Y139951D02*
G03*
X203048Y139951I3048J0D01*
G01*
X300320Y42707D02*
G03*
X300320Y42707I-1270J0D01*
G01*
X211023Y161000D02*
G03*
X211023Y161000I-762J0D01*
G01*
D32*
X184506Y98549D02*
Y139951D01*
X215494D01*
Y98549D02*
Y139951D01*
X184506Y98549D02*
X215494D01*
Y137411D02*
X225273D01*
Y133601D02*
Y137411D01*
X215494Y133601D02*
X225273D01*
X215494D02*
Y137411D01*
Y130909D02*
X225273D01*
Y127099D02*
Y130909D01*
X215494Y127099D02*
X225273D01*
X215494D02*
Y130909D01*
Y124406D02*
X225273D01*
Y120596D02*
Y124406D01*
X215494Y120596D02*
X225273D01*
X215494D02*
Y124406D01*
Y117904D02*
X225273D01*
Y114094D02*
Y117904D01*
X215494Y114094D02*
X225273D01*
X215494D02*
Y117904D01*
Y111401D02*
X225273D01*
Y107591D02*
Y111401D01*
X215494Y107591D02*
X225273D01*
X215494D02*
Y111401D01*
Y104899D02*
X225273D01*
Y101089D02*
Y104899D01*
X215494Y101089D02*
X225273D01*
X215494D02*
Y104899D01*
X174727Y101089D02*
X184506D01*
X174727D02*
Y104899D01*
X184506D01*
Y101089D02*
Y104899D01*
X174727Y107591D02*
X184506D01*
X174727D02*
Y111401D01*
X184506D01*
Y107591D02*
Y111401D01*
X174727Y114094D02*
X184506D01*
X174727D02*
Y117904D01*
X184506D01*
Y114094D02*
Y117904D01*
X174727Y120596D02*
X184506D01*
X174727D02*
Y124406D01*
X184506D01*
Y120596D02*
Y124406D01*
X174727Y127099D02*
X184506D01*
X174727D02*
Y130909D01*
X184506D01*
Y127099D02*
Y130909D01*
X174727Y133601D02*
X184506D01*
X174727D02*
Y137411D01*
X184506D01*
Y133601D02*
Y137411D01*
X296510Y40167D02*
Y54137D01*
X326990D01*
Y40167D02*
Y54137D01*
X296510Y40167D02*
X326990D01*
X309210Y54137D02*
Y60360D01*
X314290D01*
Y54137D02*
Y60360D01*
X309210Y54137D02*
X314290D01*
X323815Y33944D02*
Y40167D01*
X318735Y33944D02*
X323815D01*
X318735D02*
Y40167D01*
X323815D01*
X304765Y33944D02*
Y40167D01*
X299685Y33944D02*
X304765D01*
X299685D02*
Y40167D01*
X304765D01*
X212547Y154777D02*
Y167223D01*
X207467D02*
X212547D01*
X207467Y154777D02*
Y167223D01*
Y154777D02*
X212547D01*
X222453D02*
Y167223D01*
Y154777D02*
X227533D01*
Y167223D01*
X222453D02*
X227533D01*
X207467Y154777D02*
X227533D01*
Y167223D01*
X207467D02*
X227533D01*
X207467Y154777D02*
Y167223D01*
X224220Y222750D02*
X236920D01*
X226760Y216400D02*
X234380Y222750D01*
X226760Y217670D02*
X234380Y222750D01*
X226760Y218940D02*
X234380Y222750D01*
X226760Y220210D02*
X234380Y222750D01*
X226760Y221480D02*
X234380Y222750D01*
X226760Y229100D02*
X234380Y222750D01*
X226760Y227830D02*
X234380Y222750D01*
X226760Y226560D02*
X234380Y222750D01*
X226760Y225290D02*
X234380Y222750D01*
X226760Y224020D02*
X234380Y222750D01*
X226760Y216400D02*
Y229100D01*
X142940Y253230D02*
X214060D01*
X142940Y192270D02*
Y253230D01*
Y192270D02*
X214060D01*
Y253230D01*
X317719Y73686D02*
Y81814D01*
X305781Y73686D02*
X317719D01*
X305781D02*
Y81814D01*
X317719D01*
X315687D02*
X317719Y79782D01*
X315687Y73686D02*
X317719Y75718D01*
X303495Y75972D02*
X305781D01*
X303495D02*
Y79528D01*
X305781D01*
Y75972D02*
Y79528D01*
X317719D02*
X320005D01*
Y75972D02*
Y79528D01*
X317719Y75972D02*
X320005D01*
X317719D02*
Y79528D01*
X270500Y67500D02*
Y79500D01*
X250500Y67500D02*
X270500D01*
X250500D02*
Y79500D01*
X270500D01*
X250500Y67500D02*
X257000D01*
X250500D02*
Y79500D01*
X257000D01*
Y67500D02*
Y79500D01*
X264000D02*
X270500D01*
Y67500D02*
Y79500D01*
X264000Y67500D02*
X270500D01*
X264000D02*
Y79500D01*
X245464Y185499D02*
X313536D01*
X245464D02*
Y253571D01*
X313536D01*
Y185499D02*
Y253571D01*
X296518Y185499D02*
X313536Y202517D01*
X245464D02*
X262482Y185499D01*
X323714Y185499D02*
X391786D01*
X323714D02*
Y253571D01*
X391786D01*
Y185499D02*
Y253571D01*
X374768Y185499D02*
X391786Y202517D01*
X323714D02*
X340732Y185499D01*
X103190Y119565D02*
Y158935D01*
X47310Y119565D02*
X103190D01*
X47310D02*
Y158935D01*
X103190D01*
X110810Y132900D02*
Y145600D01*
Y140520D02*
X118430Y139250D01*
X110810Y141790D02*
X118430Y139250D01*
X110810Y143060D02*
X118430Y139250D01*
X110810Y144330D02*
X118430Y139250D01*
X110810Y145600D02*
X118430Y139250D01*
X110810Y137980D02*
X118430Y139250D01*
X110810Y136710D02*
X118430Y139250D01*
X110810Y135440D02*
X118430Y139250D01*
X110810Y134170D02*
X118430Y139250D01*
X110810Y132900D02*
X118430Y139250D01*
Y132900D02*
Y145600D01*
X108270Y139250D02*
X120970D01*
X270500Y30500D02*
Y42500D01*
X250500Y30500D02*
X270500D01*
X250500D02*
Y42500D01*
X270500D01*
X250500Y30500D02*
X257000D01*
X250500D02*
Y42500D01*
X257000D01*
Y30500D02*
Y42500D01*
X264000D02*
X270500D01*
Y30500D02*
Y42500D01*
X264000Y30500D02*
X270500D01*
X264000D02*
Y42500D01*
X164000Y32750D02*
X176000D01*
Y12750D02*
Y32750D01*
X164000Y12750D02*
X176000D01*
X164000D02*
Y32750D01*
X176000Y12750D02*
Y19250D01*
X164000Y12750D02*
X176000D01*
X164000D02*
Y19250D01*
X176000D01*
X164000Y26250D02*
Y32750D01*
X176000D01*
Y26250D02*
Y32750D01*
X164000Y26250D02*
X176000D01*
X190000Y8250D02*
Y20250D01*
X210000D01*
Y8250D02*
Y20250D01*
X190000Y8250D02*
X210000D01*
X203500Y20250D02*
X210000D01*
Y8250D02*
Y20250D01*
X203500Y8250D02*
X210000D01*
X203500D02*
Y20250D01*
X190000Y8250D02*
X196500D01*
X190000D02*
Y20250D01*
X196500D01*
Y8250D02*
Y20250D01*
X190000Y30500D02*
Y42500D01*
X210000D01*
Y30500D02*
Y42500D01*
X190000Y30500D02*
X210000D01*
X203500Y42500D02*
X210000D01*
Y30500D02*
Y42500D01*
X203500Y30500D02*
X210000D01*
X203500D02*
Y42500D01*
X190000Y30500D02*
X196500D01*
X190000D02*
Y42500D01*
X196500D01*
Y30500D02*
Y42500D01*
X214250Y52750D02*
Y66250D01*
X185750Y52750D02*
X214250D01*
X185750D02*
Y66250D01*
X214250D01*
X210875D02*
X214250Y62875D01*
X210875Y52750D02*
X214250Y56125D01*
X180750Y56750D02*
X185750D01*
X180750Y62250D02*
X185750D01*
Y56750D02*
Y62250D01*
X214250D02*
X219250D01*
Y56750D02*
Y62250D01*
X214250Y56750D02*
X219250D01*
X214250D02*
Y62250D01*
X148500Y83500D02*
X160500D01*
X148500D02*
Y103500D01*
X160500D01*
Y83500D02*
Y103500D01*
X148500Y97000D02*
Y103500D01*
X160500D01*
Y97000D02*
Y103500D01*
X148500Y97000D02*
X160500D01*
Y83500D02*
Y90000D01*
X148500Y83500D02*
X160500D01*
X148500D02*
Y90000D01*
X160500D01*
X190000Y76500D02*
Y88500D01*
X210000D01*
Y76500D02*
Y88500D01*
X190000Y76500D02*
X210000D01*
X203500Y88500D02*
X210000D01*
Y76500D02*
Y88500D01*
X203500Y76500D02*
X210000D01*
X203500D02*
Y88500D01*
X190000Y76500D02*
X196500D01*
X190000D02*
Y88500D01*
X196500D01*
Y76500D02*
Y88500D01*
X126500Y120750D02*
X138500D01*
X126500D02*
Y140750D01*
X138500D01*
Y120750D02*
Y140750D01*
X126500Y134250D02*
Y140750D01*
X138500D01*
Y134250D02*
Y140750D01*
X126500Y134250D02*
X138500D01*
Y120750D02*
Y127250D01*
X126500Y120750D02*
X138500D01*
X126500D02*
Y127250D01*
X138500D01*
X148500Y120750D02*
X160500D01*
X148500D02*
Y140750D01*
X160500D01*
Y120750D02*
Y140750D01*
X148500Y134250D02*
Y140750D01*
X160500D01*
Y134250D02*
Y140750D01*
X148500Y134250D02*
X160500D01*
Y120750D02*
Y127250D01*
X148500Y120750D02*
X160500D01*
X148500D02*
Y127250D01*
X160500D01*
X44464Y185499D02*
X112536D01*
X44464D02*
Y253571D01*
X112536D01*
Y185499D02*
Y253571D01*
X95518Y185499D02*
X112536Y202517D01*
X44464D02*
X61482Y185499D01*
M02*
