G04 Layer_Color=32768*
%FSLAX44Y44*%
%MOMM*%
G71*
G01*
G75*
%ADD25C,0.1524*%
G36*
X276596Y64960D02*
X244404D01*
Y82040D01*
X276596D01*
Y64960D01*
D02*
G37*
G36*
X216790Y65090D02*
X225290D01*
Y53910D01*
X216790D01*
Y50210D01*
X183210D01*
Y53910D01*
X174710D01*
Y65090D01*
X183210D01*
Y68790D01*
X216790D01*
Y65090D01*
D02*
G37*
G36*
X216096Y73960D02*
X183904D01*
Y91040D01*
X216096D01*
Y73960D01*
D02*
G37*
G36*
X320259Y82068D02*
X324577D01*
Y73432D01*
X320259D01*
Y71146D01*
X303241D01*
Y73432D01*
X298923D01*
Y82068D01*
X303241D01*
Y84354D01*
X320259D01*
Y82068D01*
D02*
G37*
G36*
X216096Y27960D02*
X183904D01*
Y45040D01*
X216096D01*
Y27960D01*
D02*
G37*
G36*
X178540Y6654D02*
X161460D01*
Y38846D01*
X178540D01*
Y6654D01*
D02*
G37*
G36*
X216096Y5710D02*
X183904D01*
Y22790D01*
X216096D01*
Y5710D01*
D02*
G37*
G36*
X276596Y27960D02*
X244404D01*
Y45040D01*
X276596D01*
Y27960D01*
D02*
G37*
G36*
X317130Y56677D02*
X329530D01*
Y37627D01*
X326655D01*
Y27904D01*
X296845D01*
Y37627D01*
X293970D01*
Y56677D01*
X306370D01*
Y66400D01*
X317130D01*
Y56677D01*
D02*
G37*
G36*
X163040Y77404D02*
X145960D01*
Y109596D01*
X163040D01*
Y77404D01*
D02*
G37*
G36*
X289850Y256111D02*
X316076D01*
Y182959D01*
X289850D01*
Y173006D01*
X269150D01*
Y182959D01*
X242924D01*
Y256111D01*
X269150D01*
Y266064D01*
X289850D01*
Y256111D01*
D02*
G37*
G36*
X88850D02*
X115076D01*
Y182959D01*
X88850D01*
Y173006D01*
X68150D01*
Y182959D01*
X41924D01*
Y256111D01*
X68150D01*
Y266064D01*
X88850D01*
Y256111D01*
D02*
G37*
G36*
X216600Y244340D02*
X223712D01*
Y201160D01*
X216600D01*
Y189730D01*
X140400D01*
Y201160D01*
X133288D01*
Y244340D01*
X140400D01*
Y255770D01*
X216600D01*
Y244340D01*
D02*
G37*
G36*
X368100Y256111D02*
X394326D01*
Y182959D01*
X368100D01*
Y173006D01*
X347400D01*
Y182959D01*
X321174D01*
Y256111D01*
X347400D01*
Y266064D01*
X368100D01*
Y256111D01*
D02*
G37*
G36*
X232105Y152237D02*
X202895D01*
Y169763D01*
X232105D01*
Y152237D01*
D02*
G37*
G36*
X141040Y114654D02*
X123960D01*
Y146846D01*
X141040D01*
Y114654D01*
D02*
G37*
G36*
X218034Y140251D02*
X231313D01*
Y98249D01*
X218034D01*
Y96009D01*
X181966D01*
Y98249D01*
X168687D01*
Y140251D01*
X181966D01*
Y142491D01*
X218034D01*
Y140251D01*
D02*
G37*
G36*
X105730Y152712D02*
X107230D01*
Y125788D01*
X105730D01*
Y117025D01*
X44770D01*
Y125788D01*
X43270D01*
Y152712D01*
X44770D01*
Y161475D01*
X105730D01*
Y152712D01*
D02*
G37*
G36*
X163040Y114654D02*
X145960D01*
Y146846D01*
X163040D01*
Y114654D01*
D02*
G37*
D25*
X168687Y98249D02*
Y140251D01*
X181966D01*
Y142491D01*
X218034D01*
Y140251D02*
Y142491D01*
Y140251D02*
X231313D01*
Y98249D02*
Y140251D01*
X218034Y98249D02*
X231313D01*
X218034Y96009D02*
Y98249D01*
X181966Y96009D02*
X218034D01*
X181966D02*
Y98249D01*
X168687D02*
X181966D01*
X296845Y27904D02*
X326655D01*
X296845D02*
Y37627D01*
X326655Y27904D02*
Y37627D01*
X293970D02*
X296845D01*
X326655D02*
X329530D01*
Y56677D01*
X317130D02*
X329530D01*
X317130D02*
Y66400D01*
X306370D02*
X317130D01*
X306370Y56677D02*
Y66400D01*
X293970Y56677D02*
X306370D01*
X293970Y37627D02*
Y56677D01*
X202895Y152237D02*
Y169763D01*
X232105D01*
Y152237D02*
Y169763D01*
X202895Y152237D02*
X232105D01*
X223712Y201160D02*
Y244340D01*
X216600Y201160D02*
X223712D01*
X133288D02*
X140400D01*
X133288D02*
Y244340D01*
X140400D01*
X216600D02*
X223712D01*
X216600D02*
Y255770D01*
Y189730D02*
Y201160D01*
X140400Y189730D02*
X216600D01*
X140400D02*
Y201160D01*
Y244340D02*
Y255770D01*
X216600D01*
X303241Y84354D02*
X320259D01*
X303241Y82068D02*
Y84354D01*
Y71146D02*
Y73432D01*
Y71146D02*
X320259D01*
Y73432D01*
Y82068D02*
Y84354D01*
Y82068D02*
X324577D01*
X298923D02*
X303241D01*
X298923Y73432D02*
Y82068D01*
Y73432D02*
X303241D01*
X320259D02*
X324577D01*
Y82068D01*
X244404Y82040D02*
X276596D01*
X244404Y64960D02*
Y82040D01*
Y64960D02*
X276596D01*
Y82040D01*
X316076Y182959D02*
Y256111D01*
X289850D02*
X316076D01*
X242924D02*
X269150D01*
X242924Y182959D02*
Y256111D01*
Y182959D02*
X269150D01*
X289850D02*
X316076D01*
X289850Y173006D02*
Y182959D01*
Y256111D02*
Y266064D01*
X269150D02*
X289850D01*
X269150Y256111D02*
Y266064D01*
Y173006D02*
Y182959D01*
Y173006D02*
X289850D01*
X394326Y182959D02*
Y256111D01*
X368100D02*
X394326D01*
X321174D02*
X347400D01*
X321174Y182959D02*
Y256111D01*
Y182959D02*
X347400D01*
X368100D02*
X394326D01*
X368100Y173006D02*
Y182959D01*
Y256111D02*
Y266064D01*
X347400D02*
X368100D01*
X347400Y256111D02*
Y266064D01*
Y173006D02*
Y182959D01*
Y173006D02*
X368100D01*
X44770Y161475D02*
X105730D01*
X44770Y152712D02*
Y161475D01*
Y117025D02*
Y125788D01*
Y117025D02*
X105730D01*
Y125788D01*
Y152712D02*
Y161475D01*
Y152712D02*
X107230D01*
X43270D02*
X44770D01*
X43270Y125788D02*
Y152712D01*
Y125788D02*
X44770D01*
X105730D02*
X107230D01*
Y152712D01*
X244404Y45040D02*
X276596D01*
X244404Y27960D02*
Y45040D01*
Y27960D02*
X276596D01*
Y45040D01*
X161460Y6654D02*
Y38846D01*
Y6654D02*
X178540D01*
Y38846D01*
X161460D02*
X178540D01*
X183904Y5710D02*
X216096D01*
Y22790D01*
X183904D02*
X216096D01*
X183904Y5710D02*
Y22790D01*
Y27960D02*
X216096D01*
Y45040D01*
X183904D02*
X216096D01*
X183904Y27960D02*
Y45040D01*
X183210Y68790D02*
X216790D01*
X183210Y50210D02*
X216790D01*
Y53910D01*
Y65090D02*
Y68790D01*
Y65090D02*
X225290D01*
X216790Y53910D02*
X225290D01*
Y65090D01*
X163040Y77404D02*
Y109596D01*
X145960D02*
X163040D01*
X145960Y77404D02*
Y109596D01*
Y77404D02*
X163040D01*
X183904Y73960D02*
X216096D01*
Y91040D01*
X183904D02*
X216096D01*
X183904Y73960D02*
Y91040D01*
X141040Y114654D02*
Y146846D01*
X123960D02*
X141040D01*
X123960Y114654D02*
Y146846D01*
Y114654D02*
X141040D01*
X163040D02*
Y146846D01*
X145960D02*
X163040D01*
X145960Y114654D02*
Y146846D01*
Y114654D02*
X163040D01*
X115076Y182959D02*
Y256111D01*
X88850D02*
X115076D01*
X41924D02*
X68150D01*
X41924Y182959D02*
Y256111D01*
Y182959D02*
X68150D01*
X88850D02*
X115076D01*
X88850Y173006D02*
Y182959D01*
Y256111D02*
Y266064D01*
X68150D02*
X88850D01*
X68150Y256111D02*
Y266064D01*
Y173006D02*
Y182959D01*
Y173006D02*
X88850D01*
M02*
