G04 Layer_Color=8388736*
%FSLAX44Y44*%
%MOMM*%
G71*
G01*
G75*
%ADD10R,1.3858X0.4410*%
%ADD11R,1.7526X2.9464*%
%ADD12R,0.5680X1.4112*%
%ADD13R,0.7112X1.2446*%
%ADD14R,2.7940X3.8100*%
%ADD15R,0.6096X0.3556*%
%ADD16R,1.0056X1.2000*%
%ADD18R,1.5620X2.9908*%
%ADD19R,2.1740X2.0844*%
%ADD20R,1.2000X1.0056*%
%ADD21R,1.1000X0.6100*%
%ADD28R,2.2000X1.9000*%
%ADD29C,2.7000*%
%ADD30C,1.2000*%
D10*
X178156Y135506D02*
D03*
Y129004D02*
D03*
Y122501D02*
D03*
Y115999D02*
D03*
Y109496D02*
D03*
Y102994D02*
D03*
X221844D02*
D03*
Y109496D02*
D03*
Y115999D02*
D03*
Y122501D02*
D03*
Y129004D02*
D03*
Y135506D02*
D03*
D11*
X200000Y119250D02*
D03*
D12*
X311750Y56804D02*
D03*
X321275Y37500D02*
D03*
X302225D02*
D03*
D13*
X208991Y161000D02*
D03*
X226009D02*
D03*
D14*
X207202Y222750D02*
D03*
X149798D02*
D03*
D15*
X304511Y77750D02*
D03*
X318989D02*
D03*
D16*
X251972Y73500D02*
D03*
X269028D02*
D03*
X251972Y36500D02*
D03*
X269028D02*
D03*
X208528Y14250D02*
D03*
X191472D02*
D03*
X208528Y36500D02*
D03*
X191472D02*
D03*
X208528Y82500D02*
D03*
X191472D02*
D03*
D18*
X279500Y248570D02*
D03*
Y190500D02*
D03*
X357750Y248570D02*
D03*
Y190500D02*
D03*
X78500Y248570D02*
D03*
Y190500D02*
D03*
D19*
X56680Y139250D02*
D03*
X93820D02*
D03*
D20*
X170000Y14222D02*
D03*
Y31278D02*
D03*
X154500Y102028D02*
D03*
Y84972D02*
D03*
X132500Y139278D02*
D03*
Y122222D02*
D03*
X154500Y139278D02*
D03*
Y122222D02*
D03*
D21*
X182750Y59500D02*
D03*
X217250D02*
D03*
D28*
X276000Y129750D02*
D03*
X316000D02*
D03*
D29*
X21250Y99250D02*
D03*
Y139250D02*
D03*
X378750D02*
D03*
Y99250D02*
D03*
D30*
X300000Y275000D02*
D03*
X200000D02*
D03*
X100000D02*
D03*
M02*
