G04 Layer_Physical_Order=1*
G04 Layer_Color=255*
%FSLAX44Y44*%
%MOMM*%
G71*
G01*
G75*
%ADD10R,1.7526X2.9464*%
%ADD11R,1.3858X0.4410*%
%ADD12R,0.5680X1.4112*%
%ADD13R,0.7112X1.2446*%
%ADD14R,2.7940X3.8100*%
%ADD15R,0.6096X0.3556*%
%ADD16R,1.0056X1.2000*%
%ADD17R,2.0000X1.7000*%
%ADD18R,1.5620X2.9908*%
%ADD19R,2.1740X2.0844*%
%ADD20R,1.2000X1.0056*%
%ADD21R,1.1000X0.6100*%
%ADD22C,0.2500*%
%ADD23C,2.5000*%
%ADD24C,1.0000*%
G36*
X287000Y65500D02*
X261250D01*
Y119750D01*
X215000D01*
Y124750D01*
X241250D01*
Y139500D01*
X287000D01*
Y65500D01*
D02*
G37*
G36*
X116250Y167250D02*
X189500D01*
Y120250D01*
X171250D01*
Y124750D01*
X186750D01*
Y133250D01*
X166250D01*
Y128750D01*
X70750D01*
Y205500D01*
X116250D01*
Y167250D01*
D02*
G37*
G36*
X225196Y80839D02*
Y64832D01*
X224250Y64050D01*
X223926Y64050D01*
X216665D01*
X211332Y69383D01*
Y75000D01*
X215056D01*
Y89183D01*
X216326Y89709D01*
X225196Y80839D01*
D02*
G37*
G36*
X147000Y115694D02*
X151696D01*
Y108556D01*
X147000D01*
Y96554D01*
X141411D01*
X135304Y102662D01*
Y115694D01*
X140000D01*
Y127126D01*
X147000D01*
Y115694D01*
D02*
G37*
G36*
X67500Y125750D02*
X7750D01*
Y152750D01*
X67500D01*
Y125750D01*
D02*
G37*
G36*
X350000Y285000D02*
X352949Y285000D01*
X358798Y284230D01*
X364496Y282703D01*
X369946Y280446D01*
X375054Y277496D01*
X379734Y273905D01*
X383905Y269734D01*
X387496Y265054D01*
X390446Y259946D01*
X392703Y254496D01*
X394230Y248798D01*
X395000Y242949D01*
X395000Y240000D01*
X395000D01*
X395000Y240000D01*
Y215374D01*
X268500D01*
X267352Y214898D01*
X266876Y213750D01*
Y172250D01*
X267352Y171102D01*
X268500Y170626D01*
X332126D01*
Y72124D01*
X307500D01*
X306352Y71648D01*
X306299Y71520D01*
X305029Y71773D01*
Y74303D01*
X305198Y74472D01*
X309059D01*
Y81028D01*
X299963D01*
Y77028D01*
X299635Y76537D01*
X299421Y75464D01*
Y46056D01*
X297885D01*
X297874Y47321D01*
Y61250D01*
X297398Y62398D01*
X296250Y62874D01*
X287898D01*
X287645Y64144D01*
X288148Y64352D01*
X288624Y65500D01*
Y102491D01*
X289797Y102977D01*
X314441Y78333D01*
Y74472D01*
X323537D01*
Y81028D01*
X319676D01*
X293054Y107650D01*
Y118161D01*
X293750Y118626D01*
X327000D01*
X328148Y119102D01*
X328624Y120250D01*
Y165000D01*
X328148Y166148D01*
X327000Y166624D01*
X234124D01*
Y242000D01*
X233648Y243148D01*
X232500Y243624D01*
X193000D01*
X192219Y243300D01*
X191732D01*
Y242859D01*
X191376Y242000D01*
Y203750D01*
X191732Y202892D01*
Y202200D01*
X192822D01*
X193000Y202126D01*
X213376D01*
Y168723D01*
X203935D01*
Y153277D01*
X206187D01*
Y137643D01*
X206364Y136752D01*
X206162Y136245D01*
X205600Y135482D01*
X201250D01*
Y119250D01*
Y103018D01*
X209361D01*
Y97835D01*
X209575Y96762D01*
X210182Y95852D01*
X214765Y91270D01*
X214239Y90000D01*
X202000D01*
Y75000D01*
X205724D01*
Y68222D01*
X205938Y67149D01*
X206545Y66239D01*
X210250Y62535D01*
Y54950D01*
X223926D01*
X224250Y54950D01*
X225196Y54168D01*
Y42661D01*
X221839Y39304D01*
X215056D01*
Y44000D01*
X202000D01*
Y29000D01*
X215056D01*
Y33696D01*
X223000D01*
X224073Y33910D01*
X224983Y34517D01*
X228523Y38058D01*
X229696Y37571D01*
Y30411D01*
X216339Y17054D01*
X215056D01*
Y21750D01*
X202000D01*
Y6750D01*
X215056D01*
Y11446D01*
X217500D01*
X218573Y11659D01*
X219483Y12267D01*
X234483Y27267D01*
X235090Y28177D01*
X235304Y29250D01*
Y47544D01*
X236477Y48029D01*
X245444Y39063D01*
Y29000D01*
X258500D01*
Y44000D01*
X248437D01*
X243984Y48453D01*
X244470Y49626D01*
X275876D01*
Y45137D01*
X275556Y44000D01*
X274606Y44000D01*
X270278D01*
Y36500D01*
Y29000D01*
X275556Y29000D01*
X275876Y27863D01*
Y18500D01*
X276352Y17352D01*
X277500Y16876D01*
X316500D01*
X317648Y17352D01*
X318124Y18500D01*
Y28944D01*
X325615D01*
Y45126D01*
X356250D01*
X357398Y45602D01*
X357874Y46750D01*
Y117126D01*
X395000D01*
X395000Y50000D01*
X395000Y47050D01*
X394230Y41202D01*
X392703Y35504D01*
X390446Y30054D01*
X387496Y24946D01*
X383905Y20266D01*
X379734Y16094D01*
X375054Y12503D01*
X369946Y9554D01*
X364496Y7297D01*
X358798Y5770D01*
X352949Y5000D01*
X350000Y5000D01*
X50000D01*
X47050Y5000D01*
X41202Y5770D01*
X35504Y7297D01*
X30054Y9554D01*
X24946Y12503D01*
X20266Y16094D01*
X16095Y20266D01*
X12504Y24946D01*
X9554Y30054D01*
X7297Y35504D01*
X5770Y41202D01*
X5000Y47050D01*
X5000Y50000D01*
Y125151D01*
X6270Y125403D01*
X6602Y124602D01*
X7750Y124126D01*
X67500D01*
X68648Y124602D01*
X69124Y125750D01*
Y126426D01*
X70394Y127274D01*
X70750Y127126D01*
X125000D01*
Y115694D01*
X129696D01*
Y101500D01*
X129909Y100427D01*
X130517Y99517D01*
X138267Y91767D01*
X139177Y91160D01*
X140250Y90946D01*
X147000D01*
Y86222D01*
X154500D01*
X162000D01*
Y90946D01*
X162250D01*
X163323Y91160D01*
X164233Y91767D01*
X167733Y95267D01*
X168340Y96177D01*
X168554Y97250D01*
Y99055D01*
X169727Y99289D01*
Y99289D01*
X176906D01*
Y102994D01*
X179406D01*
Y99289D01*
X185683D01*
Y96013D01*
X185896Y94940D01*
X186504Y94030D01*
X188668Y91867D01*
Y90000D01*
X184944D01*
Y75000D01*
X198000D01*
Y90000D01*
X194276D01*
Y93028D01*
X194062Y94101D01*
X193455Y95011D01*
X191291Y97174D01*
Y103018D01*
X198750D01*
Y119250D01*
Y135482D01*
X191124D01*
Y167250D01*
X190648Y168398D01*
X189500Y168874D01*
X117874D01*
Y205500D01*
X117398Y206648D01*
X116250Y207124D01*
X70750D01*
X70340Y206954D01*
X69190D01*
Y205653D01*
X69126Y205500D01*
Y155075D01*
X67856Y154226D01*
X67500Y154374D01*
X7750D01*
X6602Y153898D01*
X6270Y153097D01*
X5000Y153349D01*
Y240000D01*
Y242950D01*
X5770Y248798D01*
X7297Y254496D01*
X9554Y259946D01*
X12504Y265054D01*
X16095Y269734D01*
X20266Y273905D01*
X24946Y277496D01*
X30054Y280446D01*
X35504Y282703D01*
X41202Y284230D01*
X47050Y285000D01*
X50000D01*
X50000Y285000D01*
X350000Y285000D01*
D02*
G37*
G36*
X395000Y118750D02*
X356250D01*
Y46750D01*
X316500D01*
Y18500D01*
X277500D01*
Y51250D01*
X241250D01*
Y113750D01*
X213749D01*
Y118250D01*
X259750D01*
Y61250D01*
X296250D01*
Y27250D01*
X307500D01*
Y70500D01*
X333750D01*
Y172250D01*
X268500D01*
Y213750D01*
X395000D01*
Y118750D01*
D02*
G37*
G36*
X232500Y165000D02*
X327000D01*
Y120250D01*
X293750D01*
Y146250D01*
X228750D01*
Y133500D01*
X215000D01*
Y203750D01*
X193000D01*
Y242000D01*
X232500D01*
Y165000D01*
D02*
G37*
%LPC*%
G36*
X35206Y98000D02*
X22500D01*
Y85294D01*
X24905Y85610D01*
X28310Y87021D01*
X31235Y89265D01*
X33479Y92190D01*
X34890Y95595D01*
X35206Y98000D01*
D02*
G37*
G36*
X392706D02*
X380000D01*
Y85294D01*
X382405Y85610D01*
X385810Y87021D01*
X388735Y89265D01*
X390979Y92190D01*
X392390Y95595D01*
X392706Y98000D01*
D02*
G37*
G36*
X20000Y113206D02*
X17595Y112890D01*
X14190Y111479D01*
X11265Y109235D01*
X9021Y106310D01*
X7610Y102905D01*
X7294Y100500D01*
X20000D01*
Y113206D01*
D02*
G37*
G36*
X380000D02*
Y100500D01*
X392706D01*
X392390Y102905D01*
X390979Y106310D01*
X388735Y109235D01*
X385810Y111479D01*
X382405Y112890D01*
X380000Y113206D01*
D02*
G37*
G36*
X148548Y221500D02*
X134328D01*
Y202200D01*
X148548D01*
Y221500D01*
D02*
G37*
G36*
X377500Y113206D02*
X375095Y112890D01*
X371690Y111479D01*
X368765Y109235D01*
X366521Y106310D01*
X365110Y102905D01*
X364794Y100500D01*
X377500D01*
Y113206D01*
D02*
G37*
G36*
X22500D02*
Y100500D01*
X35206D01*
X34890Y102905D01*
X33479Y106310D01*
X31235Y109235D01*
X28310Y111479D01*
X24905Y112890D01*
X22500Y113206D01*
D02*
G37*
G36*
X267778Y35250D02*
X262500D01*
Y29000D01*
X267778D01*
Y35250D01*
D02*
G37*
G36*
X168750Y37806D02*
X162500D01*
Y32528D01*
X168750D01*
Y37806D01*
D02*
G37*
G36*
X177500Y30028D02*
X171250D01*
Y24750D01*
X177500D01*
Y30028D01*
D02*
G37*
G36*
X189750Y64050D02*
X175750D01*
Y54950D01*
X179946D01*
Y45222D01*
X180159Y44149D01*
X180767Y43239D01*
X184944Y39063D01*
Y29000D01*
X188668D01*
Y21750D01*
X184944D01*
Y17054D01*
X177500D01*
Y20750D01*
X162500D01*
Y7694D01*
X177500D01*
Y11446D01*
X184944D01*
Y6750D01*
X198000D01*
Y21750D01*
X194276D01*
Y29000D01*
X198000D01*
Y44000D01*
X187937D01*
X185554Y46383D01*
Y54950D01*
X189750D01*
Y64050D01*
D02*
G37*
G36*
X168750Y30028D02*
X162500D01*
Y24750D01*
X168750D01*
Y30028D01*
D02*
G37*
G36*
X177500Y37806D02*
X171250D01*
Y32528D01*
X177500D01*
Y37806D01*
D02*
G37*
G36*
X20000Y98000D02*
X7294D01*
X7610Y95595D01*
X9021Y92190D01*
X11265Y89265D01*
X14190Y87021D01*
X17595Y85610D01*
X20000Y85294D01*
Y98000D01*
D02*
G37*
G36*
X377500D02*
X364794D01*
X365110Y95595D01*
X366521Y92190D01*
X368765Y89265D01*
X371690Y87021D01*
X375095Y85610D01*
X377500Y85294D01*
Y98000D01*
D02*
G37*
G36*
X162000Y83722D02*
X155750D01*
Y78444D01*
X162000D01*
Y83722D01*
D02*
G37*
G36*
X267778Y44000D02*
X262500D01*
Y37750D01*
X267778D01*
Y44000D01*
D02*
G37*
G36*
X153250Y83722D02*
X147000D01*
Y78444D01*
X153250D01*
Y83722D01*
D02*
G37*
G36*
X165268Y221500D02*
X151048D01*
Y202200D01*
X165268D01*
Y221500D01*
D02*
G37*
G36*
X198750Y273750D02*
X193608D01*
X193667Y273303D01*
X194322Y271722D01*
X195364Y270364D01*
X196722Y269322D01*
X198303Y268667D01*
X198750Y268608D01*
Y273750D01*
D02*
G37*
G36*
X206392D02*
X201250D01*
Y268608D01*
X201697Y268667D01*
X203278Y269322D01*
X204636Y270364D01*
X205678Y271722D01*
X206333Y273303D01*
X206392Y273750D01*
D02*
G37*
G36*
X298750D02*
X293608D01*
X293667Y273303D01*
X294322Y271722D01*
X295364Y270364D01*
X296722Y269322D01*
X298303Y268667D01*
X298750Y268608D01*
Y273750D01*
D02*
G37*
G36*
X288810Y265024D02*
X280750D01*
Y249820D01*
X288810D01*
Y265024D01*
D02*
G37*
G36*
X98750Y273750D02*
X93609D01*
X93667Y273303D01*
X94322Y271722D01*
X95364Y270364D01*
X96722Y269322D01*
X98303Y268667D01*
X98750Y268608D01*
Y273750D01*
D02*
G37*
G36*
X106391D02*
X101250D01*
Y268608D01*
X101697Y268667D01*
X103278Y269322D01*
X104636Y270364D01*
X105678Y271722D01*
X106333Y273303D01*
X106391Y273750D01*
D02*
G37*
G36*
X306392D02*
X301250D01*
Y268608D01*
X301697Y268667D01*
X303278Y269322D01*
X304636Y270364D01*
X305678Y271722D01*
X306333Y273303D01*
X306392Y273750D01*
D02*
G37*
G36*
X201250Y281392D02*
Y276250D01*
X206392D01*
X206333Y276697D01*
X205678Y278278D01*
X204636Y279636D01*
X203278Y280678D01*
X201697Y281333D01*
X201250Y281392D01*
D02*
G37*
G36*
X298750D02*
X298303Y281333D01*
X296722Y280678D01*
X295364Y279636D01*
X294322Y278278D01*
X293667Y276697D01*
X293608Y276250D01*
X298750D01*
Y281392D01*
D02*
G37*
G36*
X301250D02*
Y276250D01*
X306392D01*
X306333Y276697D01*
X305678Y278278D01*
X304636Y279636D01*
X303278Y280678D01*
X301697Y281333D01*
X301250Y281392D01*
D02*
G37*
G36*
X98750D02*
X98303Y281333D01*
X96722Y280678D01*
X95364Y279636D01*
X94322Y278278D01*
X93667Y276697D01*
X93609Y276250D01*
X98750D01*
Y281392D01*
D02*
G37*
G36*
X101250D02*
Y276250D01*
X106391D01*
X106333Y276697D01*
X105678Y278278D01*
X104636Y279636D01*
X103278Y280678D01*
X101697Y281333D01*
X101250Y281392D01*
D02*
G37*
G36*
X198750D02*
X198303Y281333D01*
X196722Y280678D01*
X195364Y279636D01*
X194322Y278278D01*
X193667Y276697D01*
X193608Y276250D01*
X198750D01*
Y281392D01*
D02*
G37*
G36*
X87810Y247320D02*
X79750D01*
Y232116D01*
X87810D01*
Y247320D01*
D02*
G37*
G36*
X278250D02*
X270190D01*
Y232116D01*
X278250D01*
Y247320D01*
D02*
G37*
G36*
X288810D02*
X280750D01*
Y232116D01*
X288810D01*
Y247320D01*
D02*
G37*
G36*
X148548Y243300D02*
X134328D01*
Y224000D01*
X148548D01*
Y243300D01*
D02*
G37*
G36*
X165268D02*
X151048D01*
Y224000D01*
X165268D01*
Y243300D01*
D02*
G37*
G36*
X77250Y247320D02*
X69190D01*
Y232116D01*
X77250D01*
Y247320D01*
D02*
G37*
G36*
X356500Y247320D02*
X348440D01*
Y232116D01*
X356500D01*
Y247320D01*
D02*
G37*
G36*
X77250Y265024D02*
X69190D01*
Y249820D01*
X77250D01*
Y265024D01*
D02*
G37*
G36*
X278250D02*
X270190D01*
Y249820D01*
X278250D01*
Y265024D01*
D02*
G37*
G36*
X87810D02*
X79750D01*
Y249820D01*
X87810D01*
Y265024D01*
D02*
G37*
G36*
X367060Y247320D02*
X359000D01*
Y232116D01*
X367060D01*
Y247320D01*
D02*
G37*
G36*
X356500Y265024D02*
X348440D01*
Y249820D01*
X356500D01*
Y265024D01*
D02*
G37*
G36*
X367060D02*
X359000D01*
Y249820D01*
X367060D01*
Y265024D01*
D02*
G37*
%LPD*%
D10*
X200000Y119250D02*
D03*
D11*
X221844Y135506D02*
D03*
Y129004D02*
D03*
Y122501D02*
D03*
Y115999D02*
D03*
Y109496D02*
D03*
Y102994D02*
D03*
X178156D02*
D03*
Y109496D02*
D03*
Y115999D02*
D03*
Y122501D02*
D03*
Y129004D02*
D03*
Y135506D02*
D03*
D12*
X311750Y56804D02*
D03*
X321275Y37500D02*
D03*
X302225D02*
D03*
D13*
X208991Y161000D02*
D03*
X226009D02*
D03*
D14*
X207202Y222750D02*
D03*
X149798D02*
D03*
D15*
X304511Y77750D02*
D03*
X318989D02*
D03*
D16*
X251972Y73500D02*
D03*
X269028D02*
D03*
X251972Y36500D02*
D03*
X269028D02*
D03*
X208528Y14250D02*
D03*
X191472D02*
D03*
X208528Y36500D02*
D03*
X191472D02*
D03*
X208528Y82500D02*
D03*
X191472D02*
D03*
D17*
X276000Y129750D02*
D03*
X316000D02*
D03*
D18*
X279500Y248570D02*
D03*
Y190500D02*
D03*
X357750Y248570D02*
D03*
Y190500D02*
D03*
X78500Y248570D02*
D03*
Y190500D02*
D03*
D19*
X56680Y139250D02*
D03*
X93820D02*
D03*
D20*
X170000Y14222D02*
D03*
Y31278D02*
D03*
X154500Y102028D02*
D03*
Y84972D02*
D03*
X132500Y139278D02*
D03*
Y122222D02*
D03*
X154500Y139278D02*
D03*
Y122222D02*
D03*
D21*
X182750Y59500D02*
D03*
X217250D02*
D03*
D22*
X302225Y37500D02*
Y75464D01*
X304511Y77750D01*
X290250Y106489D02*
X318989Y77750D01*
X290250Y106489D02*
Y140500D01*
X288500Y142250D02*
X290250Y140500D01*
X240000Y142250D02*
X288500D01*
X236250Y138500D02*
X240000Y142250D01*
X236250Y133000D02*
Y138500D01*
X232254Y129004D02*
X236250Y133000D01*
X221844Y129004D02*
X232254D01*
X213246D02*
X221844D01*
X211513Y130737D02*
X213246Y129004D01*
X211513Y130737D02*
Y135121D01*
X208991Y137643D02*
X211513Y135121D01*
X208991Y137643D02*
Y161000D01*
X237250Y51222D02*
X251972Y36500D01*
X237250Y51222D02*
Y103250D01*
X231004Y109496D02*
X237250Y103250D01*
X221844Y109496D02*
X231004D01*
X232500Y29250D02*
Y84000D01*
X217500Y14250D02*
X232500Y29250D01*
X208528Y14250D02*
X217500D01*
X221844Y94656D02*
Y102994D01*
Y94656D02*
X232500Y84000D01*
X212165Y97835D02*
X228000Y82000D01*
X212165Y97835D02*
Y114415D01*
X228000Y41500D02*
Y82000D01*
X213749Y115999D02*
X221844D01*
X212165Y114415D02*
X213749Y115999D01*
X223000Y36500D02*
X228000Y41500D01*
X208528Y36500D02*
X223000D01*
X170000Y14222D02*
X170028Y14250D01*
X191472D01*
Y36500D01*
X182750Y45222D02*
X191472Y36500D01*
X182750Y45222D02*
Y59500D01*
X208528Y68222D02*
X217250Y59500D01*
X208528Y68222D02*
Y82500D01*
X191472D02*
Y93028D01*
X188487Y96013D02*
X191472Y93028D01*
X188487Y96013D02*
Y114763D01*
X187251Y115999D02*
X188487Y114763D01*
X178156Y115999D02*
X187251D01*
X169246Y109496D02*
X178156D01*
X165750Y106000D02*
X169246Y109496D01*
X165750Y97250D02*
Y106000D01*
X162250Y93750D02*
X165750Y97250D01*
X140250Y93750D02*
X162250D01*
X132500Y101500D02*
X140250Y93750D01*
X132500Y101500D02*
Y122222D01*
X154500Y102028D02*
Y122222D01*
X170532Y129004D02*
X178156D01*
X163750Y122222D02*
X170532Y129004D01*
X154500Y122222D02*
X163750D01*
D23*
X21250Y99250D02*
D03*
Y139250D02*
D03*
X378750D02*
D03*
Y99250D02*
D03*
D24*
X300000Y275000D02*
D03*
X200000D02*
D03*
X100000D02*
D03*
M02*
