G04 Layer_Physical_Order=2*
G04 Layer_Color=16711680*
%FSLAX44Y44*%
%MOMM*%
G71*
G01*
G75*
%ADD23C,2.5000*%
%ADD24C,1.0000*%
G36*
X350000Y285000D02*
X352949Y285000D01*
X358798Y284230D01*
X364496Y282703D01*
X369946Y280446D01*
X375054Y277496D01*
X379734Y273905D01*
X383905Y269734D01*
X387496Y265054D01*
X390446Y259946D01*
X392703Y254496D01*
X394230Y248798D01*
X395000Y242950D01*
X395000Y240000D01*
X395000D01*
X395000Y50000D01*
X395000Y47050D01*
X394230Y41202D01*
X392703Y35504D01*
X390446Y30054D01*
X387496Y24946D01*
X383905Y20266D01*
X379734Y16094D01*
X375054Y12503D01*
X369946Y9554D01*
X364496Y7297D01*
X358798Y5770D01*
X352949Y5000D01*
X350000Y5000D01*
X50000D01*
X47050Y5000D01*
X41202Y5770D01*
X35504Y7297D01*
X30054Y9554D01*
X24946Y12504D01*
X20266Y16095D01*
X16095Y20266D01*
X12504Y24946D01*
X9554Y30054D01*
X7297Y35504D01*
X5770Y41202D01*
X5000Y47050D01*
X5000Y50000D01*
Y50000D01*
Y240000D01*
Y242950D01*
X5770Y248798D01*
X7297Y254496D01*
X9554Y259946D01*
X12504Y265054D01*
X16095Y269734D01*
X20266Y273905D01*
X24946Y277496D01*
X30054Y280446D01*
X35504Y282703D01*
X41202Y284230D01*
X47050Y285000D01*
X50000D01*
Y285000D01*
X350000Y285000D01*
D02*
G37*
%LPC*%
G36*
X22500Y113206D02*
Y100500D01*
X35206D01*
X34890Y102905D01*
X33479Y106310D01*
X31235Y109235D01*
X28310Y111479D01*
X24905Y112890D01*
X22500Y113206D01*
D02*
G37*
G36*
X377500D02*
X375095Y112890D01*
X371690Y111479D01*
X368765Y109235D01*
X366521Y106310D01*
X365110Y102905D01*
X364794Y100500D01*
X377500D01*
Y113206D01*
D02*
G37*
G36*
X380000D02*
Y100500D01*
X392706D01*
X392390Y102905D01*
X390979Y106310D01*
X388735Y109235D01*
X385810Y111479D01*
X382405Y112890D01*
X380000Y113206D01*
D02*
G37*
G36*
X378750Y153371D02*
X375095Y152890D01*
X371689Y151479D01*
X368765Y149235D01*
X366521Y146310D01*
X365110Y142905D01*
X364629Y139250D01*
X365110Y135595D01*
X366521Y132190D01*
X368765Y129265D01*
X371689Y127021D01*
X375095Y125610D01*
X378750Y125129D01*
X382405Y125610D01*
X385810Y127021D01*
X388735Y129265D01*
X390979Y132190D01*
X392390Y135595D01*
X392871Y139250D01*
X392390Y142905D01*
X390979Y146310D01*
X388735Y149235D01*
X385810Y151479D01*
X382405Y152890D01*
X378750Y153371D01*
D02*
G37*
G36*
X21250D02*
X17595Y152890D01*
X14189Y151479D01*
X11265Y149235D01*
X9021Y146310D01*
X7610Y142905D01*
X7129Y139250D01*
X7610Y135595D01*
X9021Y132190D01*
X11265Y129265D01*
X14189Y127021D01*
X17595Y125610D01*
X21250Y125129D01*
X24905Y125610D01*
X28310Y127021D01*
X31235Y129265D01*
X33479Y132190D01*
X34890Y135595D01*
X35371Y139250D01*
X34890Y142905D01*
X33479Y146310D01*
X31235Y149235D01*
X28310Y151479D01*
X24905Y152890D01*
X21250Y153371D01*
D02*
G37*
G36*
X377500Y98000D02*
X364794D01*
X365110Y95595D01*
X366521Y92190D01*
X368765Y89265D01*
X371690Y87021D01*
X375095Y85610D01*
X377500Y85294D01*
Y98000D01*
D02*
G37*
G36*
X20000D02*
X7294D01*
X7610Y95595D01*
X9021Y92190D01*
X11265Y89265D01*
X14190Y87021D01*
X17595Y85610D01*
X20000Y85294D01*
Y98000D01*
D02*
G37*
G36*
X35206D02*
X22500D01*
Y85294D01*
X24905Y85610D01*
X28310Y87021D01*
X31235Y89265D01*
X33479Y92190D01*
X34890Y95595D01*
X35206Y98000D01*
D02*
G37*
G36*
X20000Y113206D02*
X17595Y112890D01*
X14190Y111479D01*
X11265Y109235D01*
X9021Y106310D01*
X7610Y102905D01*
X7294Y100500D01*
X20000D01*
Y113206D01*
D02*
G37*
G36*
X392706Y98000D02*
X380000D01*
Y85294D01*
X382405Y85610D01*
X385810Y87021D01*
X388735Y89265D01*
X390979Y92190D01*
X392390Y95595D01*
X392706Y98000D01*
D02*
G37*
G36*
X98750Y273750D02*
X93609D01*
X93667Y273303D01*
X94322Y271722D01*
X95364Y270364D01*
X96722Y269322D01*
X98303Y268667D01*
X98750Y268608D01*
Y273750D01*
D02*
G37*
G36*
X198750Y281392D02*
X198303Y281333D01*
X196722Y280678D01*
X195364Y279636D01*
X194322Y278278D01*
X193667Y276697D01*
X193608Y276250D01*
X198750D01*
Y281392D01*
D02*
G37*
G36*
X101250D02*
Y276250D01*
X106391D01*
X106333Y276697D01*
X105678Y278278D01*
X104636Y279636D01*
X103278Y280678D01*
X101697Y281333D01*
X101250Y281392D01*
D02*
G37*
G36*
X201250D02*
Y276250D01*
X206392D01*
X206333Y276697D01*
X205678Y278278D01*
X204636Y279636D01*
X203278Y280678D01*
X201697Y281333D01*
X201250Y281392D01*
D02*
G37*
G36*
X301250D02*
Y276250D01*
X306392D01*
X306333Y276697D01*
X305678Y278278D01*
X304636Y279636D01*
X303278Y280678D01*
X301697Y281333D01*
X301250Y281392D01*
D02*
G37*
G36*
X298750D02*
X298303Y281333D01*
X296722Y280678D01*
X295364Y279636D01*
X294322Y278278D01*
X293667Y276697D01*
X293608Y276250D01*
X298750D01*
Y281392D01*
D02*
G37*
G36*
X98750D02*
X98303Y281333D01*
X96722Y280678D01*
X95364Y279636D01*
X94322Y278278D01*
X93667Y276697D01*
X93609Y276250D01*
X98750D01*
Y281392D01*
D02*
G37*
G36*
X198750Y273750D02*
X193608D01*
X193667Y273303D01*
X194322Y271722D01*
X195364Y270364D01*
X196722Y269322D01*
X198303Y268667D01*
X198750Y268608D01*
Y273750D01*
D02*
G37*
G36*
X106391D02*
X101250D01*
Y268608D01*
X101697Y268667D01*
X103278Y269322D01*
X104636Y270364D01*
X105678Y271722D01*
X106333Y273303D01*
X106391Y273750D01*
D02*
G37*
G36*
X206392D02*
X201250D01*
Y268608D01*
X201697Y268667D01*
X203278Y269322D01*
X204636Y270364D01*
X205678Y271722D01*
X206333Y273303D01*
X206392Y273750D01*
D02*
G37*
G36*
X306392D02*
X301250D01*
Y268608D01*
X301697Y268667D01*
X303278Y269322D01*
X304636Y270364D01*
X305678Y271722D01*
X306333Y273303D01*
X306392Y273750D01*
D02*
G37*
G36*
X298750D02*
X293608D01*
X293667Y273303D01*
X294322Y271722D01*
X295364Y270364D01*
X296722Y269322D01*
X298303Y268667D01*
X298750Y268608D01*
Y273750D01*
D02*
G37*
%LPD*%
D23*
X21250Y99250D02*
D03*
Y139250D02*
D03*
X378750D02*
D03*
Y99250D02*
D03*
D24*
X300000Y275000D02*
D03*
X200000D02*
D03*
X100000D02*
D03*
M02*
